<?xml version="1.0" standalone="no"?>
<!DOCTYPE svg PUBLIC "-//W3C//DTD SVG 20010904//EN"
 "http://www.w3.org/TR/2001/REC-SVG-20010904/DTD/svg10.dtd">
<svg version="1.0" xmlns="http://www.w3.org/2000/svg"
 width="300.000000pt" height="300.000000pt" viewBox="0 0 300.000000 300.000000"
 preserveAspectRatio="xMidYMid meet">

<g transform="translate(0.000000,300.000000) scale(0.100000,-0.100000)"
fill="#000000" stroke="none">
<path d="M1345 2934 c-188 -27 -318 -65 -449 -131 -538 -270 -843 -830 -787
-1446 33 -360 184 -676 440 -919 198 -189 450 -319 700 -362 123 -21 356 -21
475 0 493 86 916 460 1080 956 116 351 92 754 -65 1096 -90 195 -257 403 -431
536 -157 120 -357 213 -543 252 -68 14 -360 27 -420 18z m306 -35 c577 -75
1044 -520 1164 -1109 89 -442 -21 -881 -308 -1226 -194 -233 -457 -391 -755
-456 -128 -27 -376 -29 -502 -4 -464 94 -836 408 -1014 854 -176 441 -124 943
140 1344 79 119 241 288 349 362 278 193 607 276 926 235z"/>
<path d="M1295 2875 c-435 -70 -813 -359 -1005 -770 -56 -119 -81 -194 -112
-335 -32 -148 -32 -398 0 -550 120 -562 523 -979 1057 -1092 130 -27 348 -29
483 -5 396 72 752 339 944 707 128 244 185 531 158 793 -64 630 -487 1114
-1085 1243 -101 22 -330 27 -440 9z m402 -66 c40 -7 63 -16 63 -24 0 -10 -14
-12 -57 -8 -43 3 -54 2 -43 -6 8 -6 29 -11 45 -11 44 0 62 -14 46 -34 -11 -13
-11 -16 3 -16 9 0 16 -7 16 -16 0 -14 -8 -15 -47 -10 -41 5 -44 4 -20 -5 30
-12 47 -53 28 -72 -17 -17 -86 -12 -116 7 -37 24 -30 56 15 72 l35 12 -30 1
c-35 1 -60 15 -52 28 3 5 19 9 34 8 15 -1 20 0 11 2 -10 2 -18 12 -18 21 0 24
11 62 18 62 3 0 34 -5 69 -11z m-344 -49 c6 -48 -1 -82 -17 -77 -11 4 -13 8
-15 56 -1 28 -2 29 -38 20 -55 -12 -85 -11 -81 4 4 12 81 34 124 36 18 1 22
-6 27 -39z m-59 -74 l7 -35 49 6 c34 4 50 2 50 -5 0 -13 -10 -16 -117 -36 -68
-12 -73 -12 -73 5 0 12 9 19 28 21 25 3 27 6 24 41 -5 50 23 52 32 3z m-306
-42 c30 -60 33 -84 13 -84 -4 0 -13 12 -20 26 -7 15 -17 24 -25 21 -7 -3 -18
-1 -24 5 -12 12 -35 1 -27 -13 4 -5 17 -9 31 -9 15 0 24 -6 24 -15 0 -10 -10
-15 -28 -15 -21 0 -32 -7 -41 -26 -11 -26 -39 -28 -32 -3 2 8 6 22 8 32 4 12
0 17 -16 17 -24 0 -27 10 -9 28 9 9 9 12 0 12 -22 0 -12 27 13 38 32 15 35 15
35 1 0 -7 -8 -18 -17 -26 -13 -10 -9 -10 15 2 18 9 32 11 32 5 0 -5 7 -10 15
-10 18 0 19 14 5 41 -11 19 -6 39 8 39 4 0 22 -30 40 -66z m1083 45 c14 -7 18
-16 14 -30 -4 -11 -2 -19 4 -19 6 0 11 -7 11 -16 0 -10 -6 -13 -18 -10 -14 5
-18 0 -17 -21 0 -22 -5 -29 -23 -31 -54 -8 -98 59 -50 77 14 5 17 10 10 15
-21 13 -14 38 8 31 11 -4 20 -2 20 4 0 14 16 14 41 0z m74 -86 c-1 -28 -6 -48
-13 -48 -6 0 -20 -10 -32 -22 -11 -13 -18 -23 -15 -23 3 0 -1 -13 -10 -30 -9
-16 -19 -30 -24 -30 -15 0 -20 13 -11 31 9 15 2 22 -40 45 -36 19 -47 31 -40
38 7 7 23 4 53 -12 23 -12 45 -22 48 -22 3 0 18 27 34 60 35 74 53 78 50 13z
m-410 -68 c423 -110 724 -472 776 -930 22 -199 -16 -407 -111 -600 -129 -263
-350 -451 -635 -542 -86 -27 -98 -28 -280 -28 l-190 1 -109 37 c-176 61 -294
136 -422 269 -159 167 -255 362 -289 590 -19 123 -19 202 0 326 70 470 419
828 880 903 91 15 271 2 380 -26z m-685 -5 c0 -8 -106 -70 -120 -70 -12 0 -32
48 -25 60 5 8 12 7 25 -5 16 -14 21 -13 60 9 42 24 60 25 60 6z m-405 -99 c-5
-16 -2 -18 15 -14 17 5 21 2 20 -13 -5 -40 0 -54 19 -54 36 0 45 -25 24 -67
-22 -46 -65 -73 -90 -57 -29 18 -27 49 6 86 l30 35 -45 42 c-49 45 -50 61 -3
61 25 0 29 -3 24 -19z m1815 -92 c0 -4 -18 -22 -40 -39 -27 -21 -46 -30 -58
-25 -15 5 -12 10 16 33 18 15 32 30 32 34 0 5 -16 26 -36 48 -57 63 -30 70 32
9 30 -29 54 -56 54 -60z m-1856 29 c19 -27 20 -48 3 -72 -27 -37 -96 -12 -97
34 0 27 30 60 55 60 13 0 31 -10 39 -22z m1730 4 c3 -5 -4 -19 -15 -31 -28
-30 -15 -40 14 -13 22 20 37 21 37 1 0 -5 -10 -17 -22 -29 l-22 -20 24 -25
c18 -20 21 -28 12 -37 -8 -8 -15 -8 -21 -2 -121 133 -131 150 -83 139 20 -4
33 -1 42 10 14 17 26 19 34 7z m-1824 -242 c0 -5 7 -10 15 -10 8 0 15 -4 15
-10 0 -5 -6 -10 -14 -10 -9 0 -12 -7 -9 -20 4 -13 0 -20 -9 -20 -22 0 -28 11
-17 31 7 15 6 17 -6 13 -8 -4 -15 -1 -15 5 0 6 5 11 10 11 7 0 6 8 -1 22 -8
14 -14 18 -17 10 -5 -17 -22 -15 -22 2 0 22 32 24 52 4 10 -10 18 -22 18 -28z
m2017 30 c3 -11 9 -20 14 -20 5 0 9 -7 9 -15 0 -8 -7 -15 -15 -15 -8 0 -15 -4
-15 -10 0 -5 -8 -10 -17 -10 -15 0 -16 2 -3 10 13 8 12 10 -2 10 -10 0 -18 7
-18 16 0 10 5 14 15 10 12 -4 14 0 9 19 -4 16 -2 25 6 25 6 0 14 -9 17 -20z
m-57 -81 c0 -5 5 -7 10 -4 6 3 10 1 10 -5 0 -15 -32 -9 -38 8 -2 6 1 12 7 12
6 0 11 -5 11 -11z m-2045 -9 c3 -5 16 -10 29 -10 12 0 27 -5 34 -12 16 -16 15
-41 0 -35 -7 2 -12 12 -10 21 2 13 -2 17 -15 14 -10 -2 -18 -8 -18 -15 0 -20
-16 -28 -25 -13 -7 10 -10 11 -10 3 0 -7 -7 -13 -15 -13 -8 0 -15 7 -15 15 0
8 7 15 16 15 13 0 14 3 5 13 -11 13 -6 27 10 27 4 0 11 -4 14 -10z m2145 -60
c6 0 10 9 10 20 0 11 5 20 10 20 6 0 10 -11 10 -24 0 -14 5 -28 11 -31 5 -4 9
-14 7 -23 -2 -10 3 -22 12 -29 13 -10 13 -12 -5 -19 -11 -4 -29 -15 -41 -26
-12 -11 -28 -16 -37 -12 -18 7 -24 34 -7 34 6 0 10 -5 10 -11 0 -8 5 -8 15 1
11 9 12 16 5 25 -12 14 3 31 18 22 4 -3 7 6 7 19 0 21 -4 24 -33 22 -18 -1
-36 -6 -38 -10 -9 -15 -26 -8 -20 7 3 9 -1 18 -9 21 -18 7 -20 34 -2 34 7 0
18 -5 25 -12 9 -9 12 -8 12 8 1 15 4 14 16 -8 8 -16 19 -28 24 -28z m-2191
-36 c-6 -8 -15 -14 -20 -14 -14 0 -11 28 4 33 20 7 29 -4 16 -19z m60 -26 c15
-6 21 -12 14 -15 -7 -3 -13 -13 -13 -22 0 -10 -3 -21 -7 -25 -4 -4 -8 -16 -8
-26 0 -11 -4 -20 -10 -20 -11 0 -14 19 -6 34 2 6 5 20 6 32 0 18 -3 21 -17 13
-21 -12 -23 -1 -6 37 7 14 14 21 16 14 2 -6 16 -16 31 -22z m-62 -81 c9 -7 10
-14 2 -29 -8 -14 -14 -17 -24 -8 -9 8 -14 7 -19 -5 -8 -22 -26 -19 -26 5 0 12
7 20 18 20 13 0 14 2 3 9 -7 5 -11 14 -7 19 7 11 31 6 53 -11z m2209 -14 c13
-17 13 -17 14 0 0 10 5 15 11 12 6 -4 8 -13 5 -21 -3 -8 -4 -14 -2 -14 3 0 11
-3 20 -6 11 -4 16 -1 16 10 0 17 15 22 24 7 9 -14 -16 -28 -61 -34 -47 -6 -58
0 -42 20 9 10 8 13 -4 13 -10 0 -14 6 -11 15 8 19 14 19 30 -2z m-2256 -59 c0
-10 -31 -36 -37 -31 -10 10 6 37 22 37 8 0 15 -3 15 -6z m2349 -30 c-8 -10 -8
-14 0 -14 23 0 10 -28 -16 -33 -16 -4 -34 -11 -42 -16 -12 -8 -12 -11 0 -23 8
-8 20 -13 27 -10 7 2 12 -6 12 -22 0 -16 -6 -26 -14 -26 -8 0 -22 -3 -32 -7
-14 -5 -16 -2 -12 15 4 12 2 24 -2 27 -4 3 -6 14 -3 24 3 10 0 22 -6 25 -17
11 -13 29 4 22 8 -3 25 -1 37 4 18 7 19 9 6 9 -10 1 -18 8 -18 17 0 10 6 14
14 11 9 -4 16 3 20 15 4 18 7 19 21 8 12 -10 13 -16 4 -26z m-2293 6 c8 0 14
-7 14 -15 0 -8 -4 -15 -9 -15 -5 0 -8 -7 -7 -16 0 -9 -5 -19 -11 -21 -8 -3
-13 4 -13 17 0 19 -2 20 -15 10 -12 -10 -15 -10 -15 3 0 9 5 19 10 22 6 4 7
11 4 17 -5 8 -1 9 10 5 10 -4 24 -7 32 -7z m-81 -90 c5 -8 11 -8 20 0 11 9 14
5 13 -20 -1 -27 -18 -57 -18 -31 0 6 -4 11 -10 11 -5 0 -10 -7 -10 -15 0 -18
-16 -20 -26 -3 -4 6 1 17 11 25 11 7 13 13 7 13 -7 0 -12 7 -12 15 0 17 16 20
25 5z m75 -5 c8 -10 10 -19 4 -25 -5 -5 -14 1 -21 16 -12 27 -2 32 17 9z
m2326 -67 c-1 -24 -5 -49 -10 -57 -7 -11 -5 -13 7 -8 11 4 14 2 10 -9 -3 -7
-13 -14 -23 -14 -10 0 -24 -2 -32 -3 -7 -2 -10 -2 -6 0 4 3 5 19 2 36 -5 30
-5 31 10 13 16 -19 16 -19 18 5 0 13 2 29 3 34 2 6 3 18 4 28 2 38 18 14 17
-25z m-2406 -14 c0 -3 -7 -12 -15 -21 -20 -19 -32 -9 -15 12 12 15 30 20 30 9z
m53 -18 c3 3 11 3 17 -1 8 -5 8 -10 0 -20 -8 -9 -8 -15 0 -20 13 -8 3 -25 -16
-25 -8 0 -14 7 -14 16 0 14 -3 14 -15 4 -14 -12 -16 -9 -13 23 2 30 5 34 19
27 9 -5 19 -7 22 -4z m2274 -57 c2 -17 -1 -18 -13 -9 -17 15 -18 30 -1 30 7 0
13 -9 14 -21z m-2251 -40 c3 -6 1 -16 -5 -22 -7 -7 -12 -6 -17 6 -10 26 -24
20 -24 -9 0 -19 -4 -25 -15 -20 -9 3 -15 0 -15 -9 0 -8 -6 -15 -14 -15 -18 0
-30 17 -17 24 5 3 7 15 4 25 -4 16 1 20 29 24 61 7 67 7 74 -4z m2264 -11 c5
-13 9 -17 9 -10 1 6 6 12 12 12 6 0 9 -9 6 -20 -3 -11 -1 -20 5 -20 5 0 6 -4
3 -10 -3 -6 1 -7 9 -4 9 3 13 10 10 15 -3 5 2 9 10 9 20 0 20 -14 1 -30 -13
-11 -21 -10 -43 0 -15 7 -33 14 -41 14 -16 1 -28 26 -13 26 6 0 8 9 5 20 -7
28 15 25 27 -2z m107 -199 c-4 -29 -8 -54 -11 -56 -2 -2 -45 3 -95 12 -68 13
-91 21 -91 32 0 16 42 15 128 -3 28 -6 32 -4 32 14 0 32 11 52 27 52 13 0 15
-9 10 -51z m-2317 2 c0 -11 -14 -28 -32 -40 l-33 -20 43 -7 c32 -5 42 -11 42
-25 0 -16 -4 -18 -27 -12 -16 5 -61 7 -100 7 -54 -1 -73 2 -73 11 0 8 15 17
32 21 18 3 55 24 83 45 57 44 65 46 65 20z m2206 -100 c69 -31 90 -78 56 -121
-33 -40 -145 -21 -172 29 -18 34 -12 68 16 90 33 26 47 26 100 2z m-2151 -102
c0 -25 -144 -134 -158 -120 -8 8 -6 16 7 30 14 15 15 24 6 40 -6 12 -19 21
-30 21 -19 0 -36 17 -27 26 7 7 127 22 167 20 25 -1 35 -6 35 -17z m2090 -82
c44 -25 61 -60 51 -101 -21 -83 -186 -25 -186 65 0 60 63 77 135 36z m-2038
-23 c3 -8 -7 -33 -24 -57 -48 -68 -47 -69 7 -36 50 31 67 33 57 7 -5 -14 -139
-98 -157 -98 -20 0 -9 33 26 81 20 27 33 49 29 49 -3 0 -27 -12 -51 -26 -32
-19 -48 -24 -56 -16 -7 7 7 21 48 47 33 21 68 43 79 51 27 17 34 17 42 -2z
m1932 -138 c71 -55 86 -72 71 -81 -7 -4 -25 3 -42 15 -23 17 -32 19 -44 10
-21 -18 -17 -31 19 -61 27 -23 29 -28 15 -34 -11 -4 -38 10 -85 46 -37 29 -70
54 -72 56 -3 2 0 8 7 15 8 8 18 6 38 -7 26 -17 28 -17 41 1 11 15 10 21 -12
44 -23 24 -24 40 -3 40 5 0 35 -20 67 -44z m-1813 -42 c13 -19 15 -32 8 -52
-12 -36 -28 -31 -34 10 -7 43 -37 48 -79 12 -39 -33 -41 -77 -3 -82 20 -3 23
0 18 16 -10 30 13 38 38 13 l21 -22 -40 -35 c-42 -36 -55 -41 -55 -23 0 6 -11
20 -25 31 -29 22 -31 47 -10 87 36 70 128 96 161 45z m1680 -68 c20 -16 14
-21 -31 -28 -32 -5 -31 -44 4 -78 30 -31 70 -40 72 -17 1 6 0 22 0 34 -3 31
17 38 30 9 16 -34 3 -74 -27 -88 -33 -15 -86 12 -120 61 -29 43 -30 75 -4 101
24 24 49 25 76 6z m-1560 -62 c13 -19 15 -32 8 -52 -11 -33 -28 -32 -32 2 -6
46 -26 50 -67 15 -27 -24 -35 -38 -33 -58 2 -21 8 -26 32 -26 39 0 45 -22 10
-36 -59 -22 -100 29 -74 91 7 17 28 44 47 60 43 39 86 40 109 4z m1434 -54
c19 -12 5 -25 -28 -25 -20 0 -27 -5 -27 -20 0 -16 5 -19 25 -16 58 9 73 6 93
-21 39 -52 -10 -116 -68 -90 -34 15 -32 32 4 32 31 0 54 19 43 37 -5 9 -18 9
-49 0 -37 -9 -45 -9 -63 8 -22 20 -27 74 -8 93 14 14 57 16 78 2z m-1355 -20
c3 -5 -2 -21 -11 -35 -16 -25 -16 -27 0 -43 16 -16 19 -15 40 11 23 28 46 36
46 15 0 -6 -23 -47 -51 -90 -41 -62 -54 -76 -65 -67 -11 9 -10 16 8 41 15 22
19 35 11 46 -17 27 -30 24 -53 -13 -17 -28 -25 -33 -35 -25 -11 9 -4 27 37 91
49 78 61 89 73 69z m175 -102 c22 -13 40 -26 40 -30 0 -16 -23 -19 -51 -8 -24
10 -33 10 -42 0 -9 -9 -8 -15 6 -24 43 -26 47 -31 37 -46 -7 -12 -13 -12 -33
-1 -50 27 -66 -17 -17 -46 58 -34 23 -55 -39 -23 -23 11 -41 22 -41 25 0 16
82 175 90 175 6 0 29 -10 50 -22z m1011 -63 c43 -95 46 -105 24 -105 -8 0 -21
16 -29 35 -16 39 -19 40 -47 25 -18 -10 -18 -13 -4 -40 8 -16 15 -36 15 -45 0
-23 -28 -18 -36 8 -4 12 -22 52 -40 90 -18 37 -31 67 -29 67 2 0 10 2 18 6 9
3 19 -6 27 -25 14 -35 14 -35 40 -21 16 9 18 15 10 36 -13 33 -13 54 1 54 6 0
28 -38 50 -85z m-851 -5 c42 -42 13 -164 -43 -184 -38 -14 -73 5 -81 44 -13
68 35 160 84 160 11 0 29 -9 40 -20z m664 -9 c19 -21 12 -51 -7 -32 -19 19
-55 13 -62 -10 -13 -40 19 -109 51 -109 12 0 34 29 34 44 0 3 -9 6 -20 6 -24
0 -27 25 -4 34 31 12 40 5 52 -40 7 -26 11 -47 10 -48 -62 -34 -80 -40 -95
-30 -53 33 -80 131 -49 179 20 31 65 34 90 6z m-544 -53 c24 -95 27 -98 34
-43 10 66 14 77 26 70 13 -8 12 -54 -3 -135 -16 -86 -36 -87 -57 -2 -16 62
-30 73 -30 23 0 -41 -11 -71 -26 -71 -8 0 -14 6 -14 13 0 15 18 134 25 165 9
37 33 26 45 -20z m394 -26 c4 -31 9 -74 13 -94 4 -30 2 -38 -10 -38 -11 0 -18
14 -22 48 -4 26 -11 64 -17 86 -11 44 -5 68 15 60 9 -3 17 -27 21 -62z m-170
13 c6 -29 11 -35 31 -35 22 0 25 5 25 35 0 23 5 35 14 35 13 0 26 -78 26 -161
0 -57 -26 -52 -34 6 -6 39 -10 45 -32 45 -22 0 -24 -4 -24 -45 0 -31 -4 -45
-14 -45 -10 0 -15 24 -20 90 -4 49 -5 94 -1 100 12 19 23 10 29 -25z"/>
<path d="M1698 2723 c6 -2 18 -2 25 0 6 3 1 5 -13 5 -14 0 -19 -2 -12 -5z"/>
<path d="M1634 2649 c-8 -14 14 -29 43 -29 33 0 38 19 8 30 -34 13 -42 13 -51
-1z"/>
<path d="M2000 2610 c0 -12 28 -25 36 -17 3 3 -4 10 -15 17 -15 7 -21 7 -21 0z"/>
<path d="M1362 2540 c-93 -12 -257 -67 -346 -117 -339 -189 -554 -582 -533
-972 18 -333 168 -618 427 -814 193 -146 489 -221 715 -182 97 17 226 55 290
87 250 125 455 370 536 640 74 251 61 500 -41 739 -178 420 -607 674 -1048
619z m278 -40 c185 -26 375 -125 526 -275 139 -137 214 -271 265 -474 25 -99
29 -131 29 -256 0 -127 -3 -157 -30 -260 -51 -197 -120 -322 -257 -462 -120
-123 -261 -208 -429 -260 -81 -24 -104 -27 -249 -27 -173 -1 -213 6 -362 64
-207 79 -416 278 -515 488 -199 427 -108 911 230 1224 111 102 294 200 429
228 126 27 222 29 363 10z"/>
<path d="M1375 2351 c-310 -50 -564 -268 -666 -572 -34 -102 -55 -268 -45
-352 l7 -57 134 0 133 0 7 57 c26 210 189 397 393 452 321 86 638 -113 694
-437 l12 -72 132 0 132 0 7 66 c13 121 -20 300 -81 432 -101 222 -310 401
-539 462 -87 23 -242 33 -320 21z"/>
<path d="M1344 1851 c-152 -43 -287 -170 -345 -323 -30 -76 -36 -215 -14 -298
9 -36 21 -71 27 -77 8 -10 117 -13 483 -13 l472 0 17 53 c10 28 20 86 23 127
18 243 -148 472 -388 535 -72 20 -200 18 -275 -4z m188 -68 c3 -28 4 -28 93
-33 88 -5 90 -6 90 -30 0 -22 -5 -25 -42 -28 l-43 -3 0 -104 0 -104 63 -3 62
-3 0 -145 0 -145 -35 0 -35 0 -3 118 -3 117 -184 0 -184 0 -3 -117 -3 -118
-35 0 -35 0 0 145 0 145 58 3 57 3 0 104 0 105 -46 0 c-44 0 -45 1 -42 28 3
27 4 27 93 32 l90 5 -3 28 c-3 26 -1 27 42 27 41 0 45 -2 48 -27z m93 -478 l0
-70 -135 0 -135 0 -3 59 c-5 91 -11 87 140 84 l133 -3 0 -70z"/>
<path d="M1430 1675 c0 -12 13 -15 60 -15 47 0 60 3 60 15 0 12 -13 15 -60 15
-47 0 -60 -3 -60 -15z"/>
<path d="M1430 1580 c0 -18 7 -20 60 -20 53 0 60 2 60 20 0 18 -7 20 -60 20
-53 0 -60 -2 -60 -20z"/>
<path d="M1430 1490 c0 -6 27 -10 60 -10 33 0 60 4 60 10 0 6 -27 10 -60 10
-33 0 -60 -4 -60 -10z"/>
<path d="M1483 1322 c-38 -2 -53 -7 -53 -18 0 -11 14 -14 60 -14 46 0 60 3 60
14 0 20 -6 21 -67 18z"/>
<path d="M710 1224 c0 -4 5 -24 12 -45 l11 -39 124 0 124 0 -7 23 c-22 72 -12
67 -144 67 -66 0 -120 -3 -120 -6z"/>
<path d="M2017 1208 c-3 -13 -9 -33 -12 -45 -7 -23 -7 -23 114 -23 l120 0 16
30 c30 58 27 60 -109 60 -120 0 -124 -1 -129 -22z"/>
<path d="M770 1072 c0 -31 26 -32 720 -32 694 0 720 1 720 32 0 4 -324 8 -720
8 -396 0 -720 -4 -720 -8z"/>
<path d="M832 992 c-10 -3 -9 -9 4 -23 16 -18 41 -19 654 -19 624 0 637 0 655
20 17 19 17 20 -1 20 -10 -1 -307 1 -659 3 -352 2 -646 2 -653 -1z"/>
<path d="M1234 905 c11 -8 45 -25 75 -37 48 -19 74 -23 181 -23 114 1 131 3
193 29 37 15 70 32 73 37 3 5 -111 9 -268 9 -242 -1 -271 -2 -254 -15z"/>
<path d="M660 2293 c-14 -18 -17 -30 -11 -36 14 -14 51 20 51 45 0 26 -15 22
-40 -9z"/>
<path d="M551 2351 c-17 -11 -7 -41 13 -41 22 0 30 20 15 36 -9 8 -19 10 -28
5z"/>
<path d="M2551 1137 c-9 -11 -10 -21 -2 -35 23 -43 121 -54 121 -13 0 42 -92
80 -119 48z"/>
<path d="M380 1035 c0 -8 4 -15 9 -15 5 0 14 7 21 15 10 13 9 15 -9 15 -12 0
-21 -6 -21 -15z"/>
<path d="M2484 966 c-19 -14 -19 -15 2 -43 27 -36 79 -52 101 -31 21 22 2 55
-42 74 -42 17 -37 17 -61 0z"/>
<path d="M1119 374 c-7 -9 -13 -37 -13 -62 -1 -41 2 -47 21 -50 38 -6 71 86
41 116 -16 16 -33 15 -49 -4z"/>
</g>
</svg>
